<svg width="101" height="32" viewBox="0 0 101 32" fill="none" xmlns="http://www.w3.org/2000/svg">
<path d="M9.71534 8.45348V17.8427C9.71534 19.8171 8.3421 21.2376 6.11059 21.2376C3.88623 21.2376 2.50583 19.8171 2.50583 17.8427V8.45348H0.295776V18.0202C0.295776 21.0742 2.59881 23.2404 6.11059 23.2404C9.62236 23.2404 11.9326 21.0742 11.9326 18.0202V8.45348H9.71534Z" fill="#101828"/>
<path d="M17.1126 16.5217C17.1126 14.7816 18.1854 13.7873 19.6731 13.7873C21.125 13.7873 22.0048 14.7319 22.0048 16.3157V22.9989H24.1433V16.06C24.1433 13.3612 22.6485 11.9478 20.4026 11.9478C18.7505 11.9478 17.6705 12.7077 17.1627 13.8654H17.0268V12.0898H14.9741V22.9989H17.1126V16.5217Z" fill="#101828"/>
<path d="M32.1396 12.0898H29.8866V9.47621H27.748V12.0898H26.1388V13.7944H27.748V20.2362C27.7409 22.2177 29.2643 23.1765 30.9523 23.141C31.6317 23.1339 32.0895 23.006 32.3398 22.9137L31.9536 21.1594C31.8106 21.1879 31.5459 21.2518 31.2026 21.2518C30.5088 21.2518 29.8866 21.0245 29.8866 19.7958V13.7944H32.1396V12.0898Z" fill="#101828"/>
<path d="M34.5052 22.9989H36.6437V12.0898H34.5052V22.9989ZM35.5852 10.4066C36.3219 10.4066 36.937 9.83842 36.937 9.1424C36.937 8.44638 36.3219 7.87109 35.5852 7.87109C34.8413 7.87109 34.2334 8.44638 34.2334 9.1424C34.2334 9.83842 34.8413 10.4066 35.5852 10.4066Z" fill="#101828"/>
<path d="M44.6489 12.0898H42.3959V9.47621H40.2574V12.0898H38.6481V13.7944H40.2574V20.2362C40.2503 22.2177 41.7737 23.1765 43.4616 23.141C44.1411 23.1339 44.5988 23.006 44.8492 22.9137L44.463 21.1594C44.3199 21.1879 44.0553 21.2518 43.712 21.2518C43.0182 21.2518 42.3959 21.0245 42.3959 19.7958V13.7944H44.6489V12.0898Z" fill="#101828"/>
<path d="M49.3891 8.45348H47.2506V22.9989H49.3891V8.45348Z" fill="#101828"/>
<path d="M57.0009 23.2191C59.3969 23.2191 61.092 22.0472 61.5784 20.2717L59.5543 19.9094C59.1681 20.9393 58.2383 21.4648 57.0224 21.4648C55.1914 21.4648 53.9612 20.2859 53.904 18.1836H61.7143V17.4308C61.7143 13.489 59.3397 11.9478 56.8507 11.9478C53.7895 11.9478 51.7726 14.2631 51.7726 17.6154C51.7726 21.0032 53.7609 23.2191 57.0009 23.2191ZM53.9111 16.5927C53.997 15.0444 55.127 13.7021 56.865 13.7021C58.5244 13.7021 59.6115 14.9237 59.6187 16.5927H53.9111Z" fill="#101828"/>
<path d="M68.1996 23.212C70.2022 23.212 70.989 21.9975 71.3752 21.3015H71.554V22.9989H73.6425V8.45348H71.504V13.8583H71.3752C70.989 13.1836 70.2595 11.9478 68.2139 11.9478C65.5604 11.9478 63.6078 14.0288 63.6078 17.5657C63.6078 21.0955 65.5318 23.212 68.1996 23.212ZM68.6717 21.4009C66.762 21.4009 65.7678 19.7319 65.7678 17.5444C65.7678 15.3782 66.7405 13.7518 68.6717 13.7518C70.5384 13.7518 71.5397 15.2646 71.5397 17.5444C71.5397 19.8384 70.5169 21.4009 68.6717 21.4009Z" fill="#101828"/>
<path d="M91.6162 8.45348V17.8427C91.6162 19.8171 90.243 21.2376 88.0114 21.2376C85.7871 21.2376 84.4067 19.8171 84.4067 17.8427V8.45348H82.1966V18.0202C82.1966 21.0742 84.4997 23.2404 88.0114 23.2404C91.5232 23.2404 93.8334 21.0742 93.8334 18.0202V8.45348H91.6162Z" fill="#101828"/>
<path d="M99.2566 8.45348H97.0466V22.9989H99.2566V8.45348Z" fill="#101828"/>
</svg>
