<svg width="103" height="72" viewBox="0 0 103 72" fill="none" xmlns="http://www.w3.org/2000/svg">
<g style="mix-blend-mode:multiply">
<rect x="24" y="25" width="55" height="22" rx="11" fill="#ECFDF3"/>
<path d="M40 33L34.5 38.5L32 36" stroke="#12B76A" stroke-width="1.5" stroke-linecap="round" stroke-linejoin="round"/>
<path d="M46.9842 40V31.2727H50.095C50.774 31.2727 51.3365 31.3963 51.7825 31.6435C52.2285 31.8906 52.5623 32.2287 52.7839 32.6577C53.0055 33.0838 53.1163 33.5639 53.1163 34.098C53.1163 34.6349 53.0041 35.1179 52.7797 35.5469C52.5581 35.973 52.2228 36.3111 51.774 36.5611C51.3279 36.8082 50.7669 36.9318 50.0907 36.9318H47.9515V35.8153H49.9714C50.4004 35.8153 50.7484 35.7415 51.0154 35.5938C51.2825 35.4432 51.4785 35.2386 51.6035 34.9801C51.7285 34.7216 51.791 34.4276 51.791 34.098C51.791 33.7685 51.7285 33.4759 51.6035 33.2202C51.4785 32.9645 51.2811 32.7642 51.0112 32.6193C50.7441 32.4744 50.3919 32.402 49.9544 32.402H48.301V40H46.9842ZM56.4039 40.1449C55.9892 40.1449 55.6142 40.0682 55.2789 39.9148C54.9437 39.7585 54.6781 39.5327 54.4821 39.2372C54.2889 38.9418 54.1923 38.5795 54.1923 38.1506C54.1923 37.7812 54.2633 37.4773 54.4054 37.2386C54.5474 37 54.7392 36.8111 54.9806 36.6719C55.2221 36.5327 55.492 36.4276 55.7903 36.3565C56.0886 36.2855 56.3926 36.2315 56.7022 36.1946C57.0943 36.1491 57.4125 36.1122 57.6568 36.0838C57.9011 36.0526 58.0787 36.0028 58.1895 35.9347C58.3002 35.8665 58.3556 35.7557 58.3556 35.6023V35.5724C58.3556 35.2003 58.2505 34.9119 58.0403 34.7074C57.8329 34.5028 57.5233 34.4006 57.1113 34.4006C56.6824 34.4006 56.3443 34.4957 56.0971 34.6861C55.8528 34.8736 55.6838 35.0824 55.59 35.3125L54.3926 35.0398C54.5346 34.642 54.742 34.321 55.0147 34.0767C55.2903 33.8295 55.6071 33.6506 55.965 33.5398C56.323 33.4261 56.6994 33.3693 57.0943 33.3693C57.3556 33.3693 57.6326 33.4006 57.9252 33.4631C58.2207 33.5227 58.4963 33.6335 58.752 33.7955C59.0105 33.9574 59.2221 34.1889 59.3869 34.4901C59.5517 34.7884 59.6341 35.1761 59.6341 35.6534V40H58.3897V39.1051H58.3386C58.2562 39.2699 58.1326 39.4318 57.9679 39.5909C57.8031 39.75 57.5914 39.8821 57.3329 39.9872C57.0744 40.0923 56.7647 40.1449 56.4039 40.1449ZM56.6809 39.1222C57.0332 39.1222 57.3343 39.0526 57.5843 38.9134C57.8372 38.7741 58.0289 38.5923 58.1596 38.3679C58.2931 38.1406 58.3599 37.8977 58.3599 37.6392V36.7955C58.3145 36.8409 58.2264 36.8835 58.0957 36.9233C57.9679 36.9602 57.8216 36.9929 57.6568 37.0213C57.492 37.0469 57.3315 37.071 57.1752 37.0938C57.019 37.1136 56.8883 37.1307 56.7832 37.1449C56.536 37.1761 56.3102 37.2287 56.1056 37.3026C55.9039 37.3764 55.742 37.483 55.6199 37.6222C55.5005 37.7585 55.4409 37.9403 55.4409 38.1676C55.4409 38.483 55.5574 38.7216 55.7903 38.8835C56.0233 39.0426 56.3201 39.1222 56.6809 39.1222ZM61.3311 40V33.4545H62.6053V40H61.3311ZM61.9746 32.4446C61.753 32.4446 61.5627 32.3707 61.4036 32.223C61.2473 32.0724 61.1692 31.8935 61.1692 31.6861C61.1692 31.4759 61.2473 31.2969 61.4036 31.1491C61.5627 30.9986 61.753 30.9233 61.9746 30.9233C62.1962 30.9233 62.3851 30.9986 62.5414 31.1491C62.7005 31.2969 62.78 31.4759 62.78 31.6861C62.78 31.8935 62.7005 32.0724 62.5414 32.223C62.3851 32.3707 62.1962 32.4446 61.9746 32.4446ZM66.7697 40.1278C66.2413 40.1278 65.7697 39.9929 65.3549 39.723C64.943 39.4503 64.6191 39.0625 64.3833 38.5597C64.1504 38.054 64.0339 37.4474 64.0339 36.7401C64.0339 36.0327 64.1518 35.4276 64.3876 34.9247C64.6262 34.4219 64.9529 34.0369 65.3677 33.7699C65.7825 33.5028 66.2527 33.3693 66.7782 33.3693C67.1845 33.3693 67.5112 33.4375 67.7583 33.5739C68.0083 33.7074 68.2015 33.8636 68.3379 34.0426C68.4771 34.2216 68.585 34.3793 68.6618 34.5156H68.7385V31.2727H70.0126V40H68.7683V38.9815H68.6618C68.585 39.1207 68.4743 39.2798 68.3294 39.4588C68.1873 39.6378 67.9913 39.794 67.7413 39.9276C67.4913 40.0611 67.1674 40.1278 66.7697 40.1278ZM67.051 39.0412C67.4174 39.0412 67.7271 38.9446 67.9799 38.7514C68.2356 38.5554 68.4288 38.2841 68.5595 37.9375C68.693 37.5909 68.7598 37.1875 68.7598 36.7273C68.7598 36.2727 68.6944 35.875 68.5637 35.5341C68.4331 35.1932 68.2413 34.9276 67.9885 34.7372C67.7356 34.5469 67.4231 34.4517 67.051 34.4517C66.6674 34.4517 66.3478 34.5511 66.0922 34.75C65.8365 34.9489 65.6433 35.2202 65.5126 35.5639C65.3848 35.9077 65.3208 36.2955 65.3208 36.7273C65.3208 37.1648 65.3862 37.5582 65.5169 37.9077C65.6475 38.2571 65.8407 38.5341 66.0964 38.7386C66.3549 38.9403 66.6731 39.0412 67.051 39.0412Z" fill="#027A48"/>
</g>
</svg>
